HIERARCHY
ROOT Hips
{
	OFFSET 0.000000 0.000000 0.000000
	CHANNELS 6 Xposition Yposition Zposition Xrotation Yrotation Zrotation
	JOINT LeftUpLeg_virtual
	{
		OFFSET 0.000000 0.000000 0.000000
		CHANNELS 3 Xrotation Yrotation Zrotation
		JOINT LeftUpLeg
		{
			OFFSET 10.205400 -3.823500 0.155100
			CHANNELS 3 Xrotation Yrotation Zrotation
			JOINT LeftLeg
			{
				OFFSET 0.708757 -12.982077 0.567790
				CHANNELS 3 Xrotation Yrotation Zrotation
				JOINT LeftFoot
				{
					OFFSET -0.708756 -10.717838 -2.184338
					CHANNELS 3 Xrotation Yrotation Zrotation
					JOINT LeftToeBase
					{
						OFFSET 0.108149 -7.191104 7.560241
						CHANNELS 3 Xrotation Yrotation Zrotation
						JOINT LeftToe_End
						{
							OFFSET 0.070230 0.081724 4.490308
							CHANNELS 3 Xrotation Yrotation Zrotation
							End Site
							{
								OFFSET 0 0 0
							}
						}
					}
				}
			}
		}
	}
	JOINT RightUpLeg_virtual
	{
		OFFSET 0.000000 0.000000 0.000000
		CHANNELS 3 Xrotation Yrotation Zrotation
		JOINT RightUpLeg
		{
			OFFSET -10.205400 -3.823500 0.005500
			CHANNELS 3 Xrotation Yrotation Zrotation
			JOINT RightLeg
			{
				OFFSET -0.708756 -12.982134 0.610632
				CHANNELS 3 Xrotation Yrotation Zrotation
				JOINT RightFoot
				{
					OFFSET 0.708754 -10.717769 -1.945823
					CHANNELS 3 Xrotation Yrotation Zrotation
					JOINT RightToeBase
					{
						OFFSET -0.108140 -7.191069 7.372968
						CHANNELS 3 Xrotation Yrotation Zrotation
						JOINT RightToe_End
						{
							OFFSET -0.070227 0.081735 4.479403
							CHANNELS 3 Xrotation Yrotation Zrotation
							End Site
							{
								OFFSET 0 0 0
							}
						}
					}
				}
			}
		}
	}
	JOINT Spine_virtual
	{
		OFFSET 0.000000 0.000000 0.000000
		CHANNELS 3 Xrotation Yrotation Zrotation
		JOINT Spine
		{
			OFFSET 0.000000 6.876099 0.125700
			CHANNELS 3 Xrotation Yrotation Zrotation
			JOINT Spine1
			{
				OFFSET 0.000000 5.730043 0.104720
				CHANNELS 3 Xrotation Yrotation Zrotation
				JOINT Spine1_split
				{
					OFFSET 0.000000 5.730043 0.104720
					CHANNELS 3 Xrotation Yrotation Zrotation
					JOINT Spine2
					{
						OFFSET 0.000000 5.730043 0.104720
						CHANNELS 3 Xrotation Yrotation Zrotation
						JOINT Neck_virtual
						{
							OFFSET 0.000000 0.000000 0.000000
							CHANNELS 3 Xrotation Yrotation Zrotation
							JOINT Neck
							{
								OFFSET 0.000000 10.314075 0.188496
								CHANNELS 3 Xrotation Yrotation Zrotation
								JOINT Head
								{
									OFFSET 0.000000 7.643700 -2.377400
									CHANNELS 3 Xrotation Yrotation Zrotation
									JOINT HeadTop_End
									{
										OFFSET 0.000000 43.788605 -13.619600
										CHANNELS 3 Xrotation Yrotation Zrotation
										End Site
										{
											OFFSET 0 0 0
										}
									}
								}
							}
						}
						JOINT LeftShoulder_virtual
						{
							OFFSET 0.000000 0.000000 0.000000
							CHANNELS 3 Xrotation Yrotation Zrotation
							JOINT LeftShoulder
							{
								OFFSET 2.196100 4.412489 0.087492
								CHANNELS 3 Xrotation Yrotation Zrotation
								JOINT LeftShoulder_split
								{
									OFFSET 2.196100 4.412489 0.087492
									CHANNELS 3 Xrotation Yrotation Zrotation
									JOINT LeftArm
									{
										OFFSET 8.771219 -2.981674 -0.026999
										CHANNELS 3 Xrotation Yrotation Zrotation
										JOINT LeftForeArm
										{
											OFFSET 8.512804 0.000000 -0.000000
											CHANNELS 3 Xrotation Yrotation Zrotation
											JOINT LeftHand
											{
												OFFSET 18.484802 0.000000 -0.000000
												CHANNELS 3 Xrotation Yrotation Zrotation
												End Site
												{
													OFFSET 0 0 0
												}
											}
										}
									}
								}
							}
						}
						JOINT RightShoulder_virtual
						{
							OFFSET 0.000000 0.000000 0.000000
							CHANNELS 3 Xrotation Yrotation Zrotation
							JOINT RightShoulder
							{
								OFFSET -2.196100 4.412496 0.070690
								CHANNELS 3 Xrotation Yrotation Zrotation
								JOINT RightShoulder_split
								{
									OFFSET -2.196100 4.412496 0.070690
									CHANNELS 3 Xrotation Yrotation Zrotation
									JOINT RightArm
									{
										OFFSET -8.771282 -2.981682 -0.094208
										CHANNELS 3 Xrotation Yrotation Zrotation
										JOINT RightForeArm
										{
											OFFSET -8.494598 0.000000 0.000000
											CHANNELS 3 Xrotation Yrotation Zrotation
											JOINT RightHand
											{
												OFFSET -18.483803 0.000000 0.000001
												CHANNELS 3 Xrotation Yrotation Zrotation
												End Site
												{
													OFFSET 0 0 0
												}
											}
										}
									}
								}
							}
						}
					}
				}
			}
		}
	}
}
MOTION
Frames: 7
Frame Time: 0.03333333
3.168978 31.899990 47.624977 0.000000 0.000000 0.000000 22.551505 25.758375 -6.203229 -35.458579 11.710896 11.522644 45.733195 10.579670 -5.050475 -13.166380 32.327753 -8.058843 -8.021053 0.749096 -2.566009 0.000000 0.000000 0.000000 23.657926 24.653730 -6.948557 -50.452657 -4.236860 -5.010893 38.078209 -3.361287 -4.959872 -9.791509 -8.393412 5.490686 3.105222 0.062274 0.335269 0.000000 0.000000 0.000000 21.461178 20.992037 -5.730861 11.740028 -1.401955 2.446715 8.423217 -2.744890 0.668736 0.733927 3.733909 0.165460 0.000000 0.000000 0.000000 8.863284 -2.867876 0.543569 -6.137034 0.168408 2.592063 -21.132411 0.951321 1.839526 0.000000 0.000000 0.000000 9.078227 -2.934045 0.680342 0.681652 -8.570096 -6.256455 4.288619 -5.117287 0.777732 -26.439295 -23.116191 -31.450398 -0.075351 -25.895614 -0.064108 0.000000 0.000000 0.000000 9.311406 -2.697590 0.805404 2.194192 5.225863 4.269573 4.825215 3.633284 -0.973774 -17.041903 -8.087386 54.305912 0.874622 64.879099 -1.206115 0.000000 0.000000 0.000000 
3.404250 32.726742 48.891449 0.000000 0.000000 0.000000 23.162674 27.843987 -6.864958 -38.237448 11.201164 9.302486 40.280341 9.722730 -5.227588 -9.021248 31.802314 -9.537921 -8.100650 0.304039 -1.115049 0.000000 0.000000 0.000000 24.246360 27.411610 -7.752722 -42.069806 -6.626512 -4.820186 30.589275 -3.854440 -5.405063 -10.590577 -9.805099 6.869015 2.181617 0.366216 0.569806 0.000000 0.000000 0.000000 21.959214 22.712433 -6.208097 11.131443 -0.335030 2.332068 8.765283 -2.461422 0.694234 0.666684 4.000326 0.067034 0.000000 0.000000 0.000000 9.096103 -2.589857 0.593188 -5.577659 -0.309386 2.015566 -23.662721 -1.890186 0.586336 0.000000 0.000000 0.000000 9.329782 -2.627723 0.578336 0.928966 -8.129613 -6.228852 4.628594 -5.239677 0.783642 -23.823049 -23.587642 -31.211823 0.404779 -24.687980 0.259754 0.000000 0.000000 0.000000 9.706001 -2.342820 0.827840 2.160921 5.525816 4.569856 4.490924 3.474105 -0.718718 -18.791973 -9.217009 55.436500 0.199426 68.929709 -0.655216 0.000000 0.000000 0.000000 
3.708032 33.078922 50.073727 0.000000 0.000000 0.000000 23.158393 29.236300 -7.573459 -41.224423 10.672673 8.270850 36.681763 9.217908 -5.718909 -5.954606 31.558278 -9.542916 -6.768315 -0.000723 -0.292227 0.000000 0.000000 0.000000 24.320316 29.484991 -8.558713 -34.390009 -9.042365 -4.059832 25.572903 -4.212933 -5.724810 -12.864963 -11.584020 7.511762 0.814193 0.722059 0.636238 0.000000 0.000000 0.000000 21.889949 24.381233 -6.700515 10.616493 0.716999 2.498748 9.013877 -2.087637 0.540395 0.451846 4.077439 -0.243104 0.000000 0.000000 0.000000 9.177010 -2.280897 0.483600 -5.287517 -0.602547 1.118724 -26.003768 -4.630369 -0.791002 0.000000 0.000000 0.000000 9.574020 -2.282200 0.336454 1.140192 -7.337149 -6.154633 4.537148 -5.217448 0.747655 -21.180458 -23.005619 -30.908454 0.879885 -25.486243 0.637164 0.000000 0.000000 0.000000 10.057670 -1.969184 0.672221 2.106203 6.049359 4.830069 4.019396 3.427323 -0.411881 -19.298312 -9.712328 56.846404 -0.489806 73.561930 -0.020622 0.000000 0.000000 0.000000 
4.031697 32.959980 51.170074 0.000000 0.000000 0.000000 22.406570 30.181271 -8.235678 -44.331090 10.281287 7.817967 35.272398 9.088765 -6.207485 -4.920463 31.516897 -7.692448 -4.919295 -0.164168 0.265577 0.000000 0.000000 0.000000 23.831809 30.978781 -9.223972 -27.813987 -11.139685 -2.746687 24.273282 -4.550227 -5.772072 -17.232596 -13.658270 6.883545 0.039882 1.073550 0.424933 0.000000 0.000000 0.000000 21.252496 26.173068 -7.223425 10.220389 1.747687 2.868026 9.075168 -1.581745 0.229041 0.378086 4.089398 -0.412234 0.000000 0.000000 0.000000 9.086084 -1.900765 0.226117 -5.262914 -0.907889 0.029012 -27.772111 -7.368048 -1.995761 0.000000 0.000000 0.000000 9.714167 -1.855887 0.008324 1.313377 -6.234904 -5.939051 4.159683 -5.151620 0.812193 -18.705421 -21.413574 -30.598322 1.265384 -28.563498 0.974819 0.000000 0.000000 0.000000 10.298312 -1.517529 0.365291 2.045158 6.821850 4.922403 3.503602 3.474249 -0.181107 -18.766694 -9.408138 58.634995 -0.836381 77.994572 0.311656 0.000000 0.000000 0.000000 
4.325609 32.492504 52.229996 0.000000 0.000000 0.000000 21.120569 30.880603 -8.766919 -47.378379 9.915229 7.531565 35.798582 9.361089 -6.683366 -5.596470 31.124148 -4.458002 -4.086101 -0.225182 0.855006 0.000000 0.000000 0.000000 22.762736 31.942585 -9.705655 -22.508533 -12.733670 -1.070235 26.451811 -4.647131 -5.392503 -22.979244 -15.635080 5.494339 -0.305575 1.330750 -0.069306 0.000000 0.000000 0.000000 20.236141 28.083967 -7.739002 9.894590 2.735327 3.222354 8.877200 -0.966684 -0.163389 0.603837 3.987789 -0.470237 0.000000 0.000000 0.000000 8.834024 -1.393858 -0.116839 -5.413127 -1.295049 -1.053849 -28.751797 -10.215075 -2.732209 0.000000 0.000000 0.000000 9.664771 -1.297977 -0.323389 1.430355 -4.915537 -5.503559 3.681883 -4.966124 0.725464 -16.634168 -19.253417 -30.307335 1.423479 -33.509516 1.153469 0.000000 0.000000 0.000000 10.295381 -0.968497 -0.011525 1.966379 7.776336 4.810985 3.046155 3.629653 -0.091792 -17.713307 -8.601941 60.656342 -0.453164 81.593208 -0.128855 0.000000 0.000000 0.000000 
4.622511 31.919033 53.287865 0.000000 0.000000 0.000000 19.543046 31.712814 -9.204085 -50.418284 9.572666 7.682750 38.050560 9.671469 -7.236310 -5.826075 29.931897 -1.330830 -4.958528 -0.258034 1.546374 0.000000 0.000000 0.000000 21.365078 32.941982 -10.048587 -18.253592 -14.024213 0.647156 30.674410 -4.290266 -4.685972 -28.630025 -17.207588 4.179004 -0.710120 1.515056 -0.761600 0.000000 0.000000 0.000000 19.070600 30.260644 -8.264934 9.524188 3.590537 3.332542 8.362768 -0.275907 -0.528113 0.802803 3.630397 -0.461053 0.000000 0.000000 0.000000 8.433907 -0.768581 -0.453499 -5.564797 -1.922595 -2.010275 -28.745244 -13.263322 -2.781262 0.000000 0.000000 0.000000 9.311673 -0.598306 -0.568041 1.483475 -3.631233 -4.857211 3.183196 -4.771108 0.457577 -15.102694 -17.010639 -29.915378 1.291398 -39.451910 1.131084 0.000000 0.000000 0.000000 9.931029 -0.334756 -0.374749 1.878503 8.704415 4.483496 2.794287 3.675327 -0.191394 -16.786281 -7.686771 62.664083 1.303894 84.240200 -2.025510 0.000000 0.000000 0.000000 
4.922153 31.462654 54.442413 0.000000 0.000000 0.000000 18.023650 32.724113 -9.617430 -53.415908 9.320570 8.061987 41.854597 10.006424 -7.806909 -3.897527 28.253182 0.695421 -5.592962 -0.206859 1.350377 0.000000 0.000000 0.000000 19.923049 33.986045 -10.321723 -14.427607 -15.302866 2.339715 34.607698 -3.323005 -3.921403 -32.617148 -18.184947 3.457656 -1.540402 1.670789 -1.334194 0.000000 0.000000 0.000000 17.951139 32.591002 -8.822916 8.976197 4.234762 3.062953 7.523525 0.419893 -0.790640 1.087508 3.270896 -0.189073 0.000000 0.000000 0.000000 7.877944 -0.063250 -0.734332 -5.611809 -2.776570 -2.739902 -27.697375 -16.446481 -2.014231 0.000000 0.000000 0.000000 8.641721 0.167346 -0.695815 1.445610 -2.525551 -4.098193 2.764442 -4.617935 0.155266 -14.250198 -15.273439 -29.398367 0.926429 -45.298361 0.941786 0.000000 0.000000 0.000000 9.190501 0.325708 -0.659684 1.761287 9.322134 4.006861 2.821957 3.421133 -0.493819 -16.190560 -6.953987 64.515160 4.910757 86.080683 -5.852697 0.000000 0.000000 0.000000 
